<?xml version="1.0" encoding="UTF-8"?>
<svg id="mask" xmlns="http://www.w3.org/2000/svg" xmlns:xlink="http://www.w3.org/1999/xlink" viewBox="0 0 559.49 134.54">
  <defs>
    <style>
      .cls-1 {
        fill: url(#Spectrum_);
      }

      .cls-2 {
        fill: none;
        stroke: #ec008c;
        stroke-linecap: round;
        stroke-linejoin: round;
        stroke-width: 3px;
      }
    </style>
    <linearGradient id="Spectrum_" data-name="Spectrum " x1="0" y1="67.27" x2="559.49" y2="67.27" gradientUnits="userSpaceOnUse">
      <stop offset="0" stop-color="#00a8de"/>
      <stop offset=".2" stop-color="#333391"/>
      <stop offset=".4" stop-color="#e91388"/>
      <stop offset=".6" stop-color="#eb2d2e"/>
      <stop offset=".8" stop-color="#fde92b"/>
      <stop offset="1" stop-color="#009e54"/>
    </linearGradient>
  </defs>
  <rect class="cls-1" width="559.49" height="134.54" rx="3.68" ry="3.68"/>
  <path class="cls-2" d="M39.78,72.27s-2.03,5.95,2.43,4.95,5.98-1.87,5.98-1.87l5.77-9.57,13.07-17.57s8.84-5.2,8.61-3.48-20.61,12.24-20.61,12.24c0,0-6.58,17.25-13.45,5.8s21.27-20.86,23.36-17.71,19.12,12.13-2.12,14.92,2.4,1.22,2.4,1.22l.93,3.6-3.17,8.7s.83,9.2,10.41-.96"/>
  <path class="cls-2" d="M89.31,64.8s-2.45-11.43-13.66,5.22,15.27-2.76,17.63-8.05-21.41,26.82,1.32,8.94"/>
  <line class="cls-2" x1="106.65" y1="52.65" x2="106.65" y2="55.62"/>
  <path class="cls-2" d="M102.06,61.2s-21.52,33.1,6.75,3.69"/>
  <path class="cls-2" d="M115.02,65.79s1.71-3.38,.11-3.98-5.69-1.78-3.83,3.98,.47,8.84,.47,8.84c0,0-2.09,2.47-4.77,1.69s-8.57-4.93-.58-5.58"/>
  <path class="cls-2" d="M114.52,74.86s3.69-3.62,7.58-7.14,8.22-7.16,8.81-6.52c1.17,1.26,5.4,.38,.18,3.44s-6.84,4.49-6.84,4.49l-3.49,3.64s1.41,12.94,18.25-8.15"/>
  <path class="cls-2" d="M162.32,54.27s.9,8.05-4.91,9.29l-5.8,1.24s-6.05-1.42-5.51-1.67-2.77-5.87-.36-8.77,12.86-8.66,13.75-7.31,27,.07,27,.07l-13.79,3.22s-28.5,47.36-30.65,19.35"/>
  <path class="cls-2" d="M169.02,68.9s13.23-6.35,11.07-6.39-1.42-3.89-7.56,1.28-6.9,12.3-5.14,12.69,11.55-3.8,13.84-6.48"/>
  <path class="cls-2" d="M192.96,64.76s3.65-4.98-1.12-3.55-6.01,3.44-8.3,6.12-2.72,11.51,1.42,8.82,27.05-21.68,27.66-29.29-20.82,29.65-20.82,29.65c0,0,22.43-23.2,19.03-14.04s-6.07,10.98-5.22,12.69,6.77,1.9,14.22-10.44"/>
  <path class="cls-2" d="M234,60.35s13.46-4.95,14.06-6.32-16.47,22.62-16.47,22.62"/>
  <path class="cls-2" d="M271.12,53.28s-10.37,1.68-7.33-.63-9.36,10.31-9.36,10.31c0,0,13.25-2.23,9.72,4.36s-11.16,10.08-11.25,9.54-12.96-4.79-1.62-9.09"/>
  <path class="cls-2" d="M286.2,52.65s-12.9,2.62-15.75,14.2,8.17,9.18,8.17,9.18c0,0,8.19-5.24,10.17-9.34s3.7-14.42-2.59-14.04Z"/>
  <path class="cls-2" d="M309.24,53.78s-9.3-2.31-14.31,10.98,6.19,11.27,6.19,11.27c0,0,8.19-5.24,10.17-9.34s1.5-16.4-2.05-12.92Z"/>
  <path class="cls-2" d="M327.33,74.93s2.63,7.4,15.34-7.18c.19-.21,3.09-2.88,6.91-6.35,8.14-7.4,20.41-18.44,19.15-16.93-3.06,3.65-14.67,18.04-14.67,18.04l-3.01-.54,4.61,.81s-4.8,15.14-.67,14.03,17.44-12.63,16.71-15.71-9.35,15.4-9.35,15.4c0,0,14.14-18.06,15.91-15.3,0,0,5.92-.52,1.31,5.94s-4.08,6.05-5.08,7.52,2.06,2.85,3.16,1.77,14.72-14.32,13.83-15.33-9.51,15.39-9.51,15.39l13.46-14.92s8.25-2.52,4.09,3.87-6.04,10.69-6.04,10.69c0,0,1.75,3.68,10.96-6.03"/>
  <line class="cls-2" x1="416.52" y1="52.65" x2="415.48" y2="55.19"/>
  <path class="cls-2" d="M468.63,64.89c-10.29,7.98-5.67-4.23-5.67-4.23l-16.02,15.84,8.73-15.48-8.17,11.54s-6.21,3.73-10.12,2.61-1.33-4.88-1.33-4.88l11.88-5.7-1.33-3.08c-1.33-3.08-5.06,2.27-10.82,5.96s-6.17-6.82-5.06-6.1-1.8,8.53-1.8,8.53c0,0-5.41,5.06-8.68,6.59s-3.63-.77-3.63-.77c-5.29-.14,5.51-14.71,5.51-14.71,0,0-8.93,11.21-14.13,14.65s-3.04-.52-3.04-.52c-2.95-1.08,6.23-13.95,6.23-13.95"/>
  <path class="cls-2" d="M475.31,64.6s3.17-2.97-.36-2.79-6.62-.78-3.04,5.78-4.81,9.27-4.81,9.27c0,0-8.46-1.98-2.39-7.47"/>
  <path class="cls-2" d="M472.43,75.8s20.65-22.71,21.8-12.13-25.33,18.19-12.13,5.72,16.63-8.37,16.63-8.37c0,0-14.22,11.34-8.55,14.13s17.23-13.95,17.23-13.95l-9.77,14.58s13.59-15.21,15.26-15.12-6.25,16.76,7.87,.36-13.41,20.97-4.77,15.12,14.49-15.12,14.49-15.12l-13.38,23.45-9.7,5.69s-4.82-.1-5.99-1.56-5.29-4.18,1.53-7.69,21.29-5.13,21.29-5.13c0,0,6.02,2.09,14.35-10.84"/>
</svg>